<svg width="20" height="20" viewBox="0 0 20 20" fill="none" xmlns="http://www.w3.org/2000/svg">
<g clip-path="url(#clip0_23_95)">
<path d="M19.2222 10.3889C19.2222 5.08087 14.9192 0.777832 9.61111 0.777832C4.30304 0.777832 0 5.08087 0 10.3889C0 15.1861 3.51463 19.1623 8.10937 19.8833V13.1672H5.66905V10.3889H8.10937V8.2715C8.10937 5.86271 9.54428 4.53217 11.7396 4.53217C12.7908 4.53217 13.8911 4.71989 13.8911 4.71989V7.08512H12.6792C11.4853 7.08512 11.1128 7.82604 11.1128 8.58686V10.3889H13.7784L13.3523 13.1672H11.1128V19.8833C15.7076 19.1623 19.2222 15.1861 19.2222 10.3889Z" fill="#0762C8"/>
</g>
<defs>
<clipPath id="clip0_23_95">
<rect width="19.2222" height="19.2222" fill="white" transform="translate(0 0.777832)"/>
</clipPath>
</defs>
</svg>
