<svg width="20" height="20" viewBox="0 0 20 20" fill="none" xmlns="http://www.w3.org/2000/svg">
<g clip-path="url(#clip0_23_99)">
<path d="M10.1298 2.50858C12.6978 2.50858 13.0019 2.51985 14.0118 2.5649C14.9504 2.6062 15.4573 2.76388 15.7951 2.89528C16.2419 3.06798 16.5648 3.27822 16.8989 3.61236C17.2368 3.95025 17.4433 4.26937 17.616 4.71614C17.7474 5.05403 17.9051 5.56462 17.9464 6.49945C17.9914 7.51312 18.0027 7.81722 18.0027 10.3814C18.0027 12.9494 17.9914 13.2535 17.9464 14.2634C17.9051 15.202 17.7474 15.7088 17.616 16.0467C17.4433 16.4935 17.2331 16.8164 16.8989 17.1505C16.561 17.4884 16.2419 17.6949 15.7951 17.8676C15.4573 17.999 14.9467 18.1567 14.0118 18.198C12.9982 18.243 12.6941 18.2543 10.1298 18.2543C7.56188 18.2543 7.25778 18.243 6.24786 18.198C5.30928 18.1567 4.80244 17.999 4.46455 17.8676C4.01778 17.6949 3.69491 17.4846 3.36077 17.1505C3.02288 16.8126 2.81639 16.4935 2.64369 16.0467C2.51229 15.7088 2.35461 15.1983 2.31331 14.2634C2.26826 13.2498 2.257 12.9457 2.257 10.3814C2.257 7.81347 2.26826 7.50936 2.31331 6.49945C2.35461 5.56086 2.51229 5.05403 2.64369 4.71614C2.81639 4.26937 3.02664 3.9465 3.36077 3.61236C3.69866 3.27447 4.01778 3.06798 4.46455 2.89528C4.80244 2.76388 5.31303 2.6062 6.24786 2.5649C7.25778 2.51985 7.56188 2.50858 10.1298 2.50858ZM10.1298 0.777832C7.52058 0.777832 7.19395 0.789095 6.16902 0.834147C5.14784 0.879199 4.44578 1.04439 3.83757 1.28091C3.20309 1.5287 2.66622 1.85533 2.1331 2.3922C1.59623 2.92531 1.26961 3.46219 1.02182 4.09292C0.785296 4.70487 0.620105 5.40318 0.575053 6.42436C0.530001 7.45305 0.518738 7.77968 0.518738 10.3889C0.518738 12.9982 0.530001 13.3248 0.575053 14.3498C0.620105 15.371 0.785296 16.073 1.02182 16.6812C1.26961 17.3157 1.59623 17.8526 2.1331 18.3857C2.66622 18.9188 3.20309 19.2492 3.83382 19.4932C4.44578 19.7297 5.14408 19.8949 6.16527 19.94C7.1902 19.985 7.51683 19.9963 10.1261 19.9963C12.7354 19.9963 13.062 19.985 14.0869 19.94C15.1081 19.8949 15.8102 19.7297 16.4184 19.4932C17.0491 19.2492 17.586 18.9188 18.1191 18.3857C18.6522 17.8526 18.9826 17.3157 19.2266 16.685C19.4631 16.073 19.6283 15.3747 19.6734 14.3535C19.7184 13.3286 19.7297 13.002 19.7297 10.3927C19.7297 7.78343 19.7184 7.4568 19.6734 6.43187C19.6283 5.41069 19.4631 4.70863 19.2266 4.10042C18.9901 3.46219 18.6635 2.92531 18.1266 2.3922C17.5935 1.85908 17.0566 1.5287 16.4259 1.28467C15.8139 1.04814 15.1156 0.882954 14.0944 0.837901C13.0657 0.789095 12.7391 0.777832 10.1298 0.777832Z" fill="#0762C8"/>
<path d="M10.1298 5.4519C7.40418 5.4519 5.19287 7.66321 5.19287 10.3889C5.19287 13.1145 7.40418 15.3258 10.1298 15.3258C12.8555 15.3258 15.0668 13.1145 15.0668 10.3889C15.0668 7.66321 12.8555 5.4519 10.1298 5.4519ZM10.1298 13.5913C8.36153 13.5913 6.92738 12.1572 6.92738 10.3889C6.92738 8.62057 8.36153 7.18641 10.1298 7.18641C11.8981 7.18641 13.3323 8.62057 13.3323 10.3889C13.3323 12.1572 11.8981 13.5913 10.1298 13.5913Z" fill="#0762C8"/>
<path d="M16.4146 5.25659C16.4146 5.89483 15.8965 6.40917 15.262 6.40917C14.6238 6.40917 14.1094 5.89107 14.1094 5.25659C14.1094 4.61835 14.6275 4.104 15.262 4.104C15.8965 4.104 16.4146 4.6221 16.4146 5.25659Z" fill="#0762C8"/>
</g>
<defs>
<clipPath id="clip0_23_99">
<rect width="19.2222" height="19.2222" fill="white" transform="translate(0.518738 0.777832)"/>
</clipPath>
</defs>
</svg>
