<svg width="20" height="20" viewBox="0 0 20 20" fill="none" xmlns="http://www.w3.org/2000/svg">
<g clip-path="url(#clip0_23_104)">
<path d="M18.5771 0.777832H2.19691C1.41225 0.777832 0.777771 1.3973 0.777771 2.16318V18.6109C0.777771 19.3768 1.41225 20.0001 2.19691 20.0001H18.5771C19.3618 20.0001 20 19.3768 20 18.6147V2.16318C20 1.3973 19.3618 0.777832 18.5771 0.777832ZM6.48061 17.158H3.62732V7.98241H6.48061V17.158ZM5.05396 6.73222C4.13791 6.73222 3.3983 5.99261 3.3983 5.08031C3.3983 4.168 4.13791 3.4284 5.05396 3.4284C5.96627 3.4284 6.70587 4.168 6.70587 5.08031C6.70587 5.98886 5.96627 6.73222 5.05396 6.73222ZM17.158 17.158H14.3084V12.6979C14.3084 11.6354 14.2896 10.265 12.8254 10.265C11.3425 10.265 11.1172 11.4251 11.1172 12.6228V17.158H8.27143V7.98241H11.0046V9.23636H11.0421C11.4213 8.51553 12.3524 7.7534 13.7378 7.7534C16.6248 7.7534 17.158 9.65309 17.158 12.1234V17.158Z" fill="#0762C8"/>
</g>
<defs>
<clipPath id="clip0_23_104">
<rect width="19.2222" height="19.2222" fill="white" transform="translate(0.777771 0.777832)"/>
</clipPath>
</defs>
</svg>
