<svg width="20" height="20" viewBox="0 0 20 20" fill="none" xmlns="http://www.w3.org/2000/svg">
<g clip-path="url(#clip0_23_97)">
<path d="M6.30618 18.1985C13.5581 18.1985 17.5257 12.1889 17.5257 6.97899C17.5257 6.81005 17.5219 6.63735 17.5144 6.4684C18.2862 5.91024 18.9523 5.21887 19.4813 4.42679C18.7625 4.7466 17.9993 4.95547 17.2178 5.04626C18.0406 4.55303 18.6568 3.77818 18.9519 2.86536C18.1778 3.32413 17.3313 3.64774 16.4485 3.82234C15.8538 3.19037 15.0674 2.77194 14.2109 2.63172C13.3545 2.49151 12.4757 2.63733 11.7105 3.04664C10.9453 3.45595 10.3362 4.10595 9.97738 4.89615C9.6186 5.68635 9.53012 6.57273 9.72563 7.41825C8.15819 7.33959 6.62477 6.93242 5.22479 6.22311C3.82481 5.51381 2.58951 4.51821 1.59899 3.30087C1.09555 4.16885 0.941498 5.19596 1.16814 6.17345C1.39478 7.15093 1.98511 8.00545 2.81915 8.56333C2.193 8.54345 1.58057 8.37486 1.03246 8.07151V8.12031C1.0319 9.0312 1.3468 9.91417 1.92364 10.6191C2.50047 11.3241 3.30364 11.8075 4.19662 11.9873C3.61659 12.146 3.00783 12.1691 2.41743 12.0549C2.66941 12.8382 3.15968 13.5234 3.8198 14.0147C4.47992 14.506 5.27696 14.779 6.09969 14.7955C4.70294 15.8927 2.97755 16.4878 1.2014 16.485C0.886419 16.4845 0.571744 16.4652 0.259064 16.4272C2.06343 17.5848 4.1624 18.1996 6.30618 18.1985Z" fill="#0762C8"/>
</g>
<defs>
<clipPath id="clip0_23_97">
<rect width="19.2222" height="19.2222" fill="white" transform="translate(0.259064 0.777832)"/>
</clipPath>
</defs>
</svg>
