<svg width="177" height="47" viewBox="0 0 177 47" fill="none" xmlns="http://www.w3.org/2000/svg">
<path d="M69.4086 46.3221V25.785H71.4548V34.9172H82.4636V25.785H84.4689V46.3221H82.4636V36.8593H71.4548V46.3221H69.4086Z" fill="#0762C8"/>
<path d="M117.659 25.785H119.705V39.0907C119.705 42.6857 121.67 44.6692 125.23 44.6692C128.709 44.6692 130.673 42.6444 130.673 39.0907V25.785H132.719V39.1734C132.719 43.8014 129.895 46.6527 125.23 46.6527C120.524 46.6527 117.659 43.8428 117.659 39.1734V25.785Z" fill="#0762C8"/>
<path d="M148.598 25.4131C152.281 25.4131 154.696 27.4792 154.982 30.909H152.895C152.65 28.5949 151.095 27.2726 148.557 27.2726C145.692 27.2726 143.81 28.7602 143.81 31.0742C143.81 32.8924 144.874 34.0081 147.002 34.5866L150.481 35.4544C153.673 36.2395 155.31 38.0577 155.31 40.8263C155.31 44.38 152.568 46.6527 148.394 46.6527C144.465 46.6527 141.764 44.5453 141.518 41.1982H143.605C143.728 43.3469 145.611 44.7519 148.394 44.7519C151.381 44.7519 153.264 43.3056 153.264 40.9502C153.264 39.1321 152.24 37.8924 150.071 37.3965L146.634 36.5288C143.442 35.7436 141.764 33.9255 141.764 31.1156C141.764 27.6858 144.506 25.4131 148.598 25.4131Z" fill="#0762C8"/>
<path d="M170.288 25.4131C173.972 25.4131 176.345 27.4792 176.673 30.909H174.585C174.34 28.5949 172.785 27.2726 170.247 27.2726C167.383 27.2726 165.5 28.7602 165.5 31.0742C165.5 32.8924 166.564 34.0081 168.692 34.5866L172.171 35.4544C175.363 36.2395 177 38.0577 177 40.8263C177 44.38 174.258 46.6527 170.084 46.6527C166.155 46.6527 163.454 44.5453 163.208 41.1982H165.295C165.418 43.3469 167.301 44.7519 170.084 44.7519C173.071 44.7519 174.954 43.3056 174.954 40.9502C174.954 39.1321 173.931 37.8924 171.762 37.3965L168.324 36.5288C165.132 35.7436 163.454 33.9255 163.454 31.1156C163.495 27.6858 166.196 25.4131 170.288 25.4131Z" fill="#0762C8"/>
<path d="M0 20.7024V0.330566H5.64763C11.7454 0.330566 15.797 4.42146 15.797 10.4958C15.797 16.5702 11.7454 20.6611 5.64763 20.6611H0V20.7024ZM1.35052 1.61155V19.4627H5.64763C10.9679 19.4627 14.4056 15.9503 14.4056 10.5371C14.4056 5.08261 11.0088 1.61155 5.64763 1.61155H1.35052Z" fill="#0762C8"/>
<path d="M26.5603 20.7024H25.2098V0.330566H26.5603V20.7024Z" fill="#0762C8"/>
<path d="M37.3644 10.5785C37.3644 16.1983 40.6793 19.7107 45.5903 19.7107C48.9052 19.7107 52.7112 18.2231 52.7112 12.6032V11.157H44.8537V9.87599H53.9799V20.7024H52.9568L52.7931 17.0247C51.729 19.2561 49.1098 20.9916 45.5903 20.9916C39.8199 20.9916 35.8911 16.8594 35.8911 10.5371C35.973 4.33882 39.8608 0 45.5085 0C49.6009 0 52.7931 2.31404 53.6525 5.82642H52.1383C51.197 2.89255 48.6597 1.32231 45.5085 1.32231C40.5975 1.32231 37.3644 5.0413 37.3644 10.5785Z" fill="#0762C8"/>
<path d="M65.4797 20.7024H64.1292V0.330566H65.4797V20.7024Z" fill="#0762C8"/>
<path d="M74.2786 0.330566H88.3158V1.61155H81.9725V20.7024H80.6219V1.61155H74.2786V0.330566Z" fill="#0762C8"/>
<path d="M120.074 19.4627H129.691V20.7437H118.682V0.330566H120.033V19.4627H120.074Z" fill="#0762C8"/>
<path d="M107.264 16.9421L108.656 20.7024H110.047L102.476 0.330566H100.471L93.0222 20.7024H94.3727L95.7642 16.9421L101.289 1.81816C101.33 1.6942 101.412 1.40494 101.453 1.28098C101.494 1.40494 101.576 1.61155 101.616 1.81816L107.264 16.9421Z" fill="#0762C8"/>
<path d="M96.1734 42.5618L94.8229 46.3221H92.7357L100.225 25.785H102.762L110.333 46.3221H108.205L106.814 42.5618L101.739 28.6776C101.657 28.3883 101.494 28.0577 101.494 27.8511C101.453 28.0164 101.371 28.3883 101.248 28.6776L96.1734 42.5618Z" fill="#0762C8"/>
</svg>
